<?xml version="1.0" encoding="UTF-8" standalone="no"?>
<!-- Created with Inkscape (http://www.inkscape.org/) -->

<svg
   xmlns:dc="http://purl.org/dc/elements/1.1/"
   xmlns:cc="http://creativecommons.org/ns#"
   xmlns:rdf="http://www.w3.org/1999/02/22-rdf-syntax-ns#"
   xmlns:svg="http://www.w3.org/2000/svg"
   xmlns="http://www.w3.org/2000/svg"
   xmlns:sodipodi="http://sodipodi.sourceforge.net/DTD/sodipodi-0.dtd"
   xmlns:inkscape="http://www.inkscape.org/namespaces/inkscape"
   version="1.1"
   id="svg2"
   xml:space="preserve"
   width="256"
   height="256"
   viewBox="0 0 256 256"
   sodipodi:docname="invidious-redirect.svg"
   inkscape:version="0.92.3 (2405546, 2018-03-11)"><metadata
     id="metadata8"><rdf:RDF><cc:Work
         rdf:about=""><dc:format>image/svg+xml</dc:format><dc:type
           rdf:resource="http://purl.org/dc/dcmitype/StillImage" /><dc:title></dc:title></cc:Work></rdf:RDF></metadata><defs
     id="defs6"><marker
       inkscape:stockid="TriangleOutS"
       orient="auto"
       refY="0.0"
       refX="0.0"
       id="TriangleOutS"
       style="overflow:visible"
       inkscape:isstock="true"><path
         id="path4706"
         d="M 5.77,0.0 L -2.88,5.0 L -2.88,-5.0 L 5.77,0.0 z "
         style="fill-rule:evenodd;stroke:#000000;stroke-width:1pt;stroke-opacity:1;fill:#000000;fill-opacity:1"
         transform="scale(0.2)" /></marker><marker
       inkscape:stockid="Arrow2Send"
       orient="auto"
       refY="0.0"
       refX="0.0"
       id="Arrow2Send"
       style="overflow:visible;"
       inkscape:isstock="true"><path
         id="path4591"
         style="fill-rule:evenodd;stroke-width:0.625;stroke-linejoin:round;stroke:#000000;stroke-opacity:1;fill:#000000;fill-opacity:1"
         d="M 8.7185878,4.0337352 L -2.2072895,0.016013256 L 8.7185884,-4.0017078 C 6.9730900,-1.6296469 6.9831476,1.6157441 8.7185878,4.0337352 z "
         transform="scale(0.3) rotate(180) translate(-2.3,0)" /></marker><marker
       inkscape:stockid="Arrow1Send"
       orient="auto"
       refY="0.0"
       refX="0.0"
       id="marker4906"
       style="overflow:visible;"
       inkscape:isstock="true"><path
         id="path4904"
         d="M 0.0,0.0 L 5.0,-5.0 L -12.5,0.0 L 5.0,5.0 L 0.0,0.0 z "
         style="fill-rule:evenodd;stroke:#000000;stroke-width:1pt;stroke-opacity:1;fill:#000000;fill-opacity:1"
         transform="scale(0.2) rotate(180) translate(6,0)" /></marker><marker
       inkscape:stockid="Arrow1Mend"
       orient="auto"
       refY="0.0"
       refX="0.0"
       id="Arrow1Mend"
       style="overflow:visible;"
       inkscape:isstock="true"><path
         id="path4567"
         d="M 0.0,0.0 L 5.0,-5.0 L -12.5,0.0 L 5.0,5.0 L 0.0,0.0 z "
         style="fill-rule:evenodd;stroke:#000000;stroke-width:1pt;stroke-opacity:1;fill:#000000;fill-opacity:1"
         transform="scale(0.4) rotate(180) translate(10,0)" /></marker><marker
       inkscape:stockid="Arrow2Mend"
       orient="auto"
       refY="0.0"
       refX="0.0"
       id="Arrow2Mend"
       style="overflow:visible;"
       inkscape:isstock="true"><path
         id="path4585"
         style="fill-rule:evenodd;stroke-width:0.625;stroke-linejoin:round;stroke:#000000;stroke-opacity:1;fill:#000000;fill-opacity:1"
         d="M 8.7185878,4.0337352 L -2.2072895,0.016013256 L 8.7185884,-4.0017078 C 6.9730900,-1.6296469 6.9831476,1.6157441 8.7185878,4.0337352 z "
         transform="scale(0.6) rotate(180) translate(0,0)" /></marker><marker
       inkscape:stockid="Arrow1Send"
       orient="auto"
       refY="0.0"
       refX="0.0"
       id="Arrow1Send"
       style="overflow:visible;"
       inkscape:isstock="true"><path
         id="path4573"
         d="M 0.0,0.0 L 5.0,-5.0 L -12.5,0.0 L 5.0,5.0 L 0.0,0.0 z "
         style="fill-rule:evenodd;stroke:#000000;stroke-width:1pt;stroke-opacity:1;fill:#000000;fill-opacity:1"
         transform="scale(0.2) rotate(180) translate(6,0)" /></marker><clipPath
       clipPathUnits="userSpaceOnUse"
       id="clipPath18"><path
         d="M 0,192 H 192 V 0 H 0 Z"
         id="path16"
         inkscape:connector-curvature="0" /></clipPath></defs><sodipodi:namedview
     pagecolor="#ffffff"
     bordercolor="#666666"
     borderopacity="1"
     objecttolerance="10"
     gridtolerance="10"
     guidetolerance="10"
     inkscape:pageopacity="0"
     inkscape:pageshadow="2"
     inkscape:window-width="640"
     inkscape:window-height="480"
     id="namedview4"
     showgrid="false"
     inkscape:current-layer="g10" /><g
     id="g10"
     inkscape:groupmode="layer"
     inkscape:label="yt_icon_rgb"
     transform="matrix(1.3333333,0,0,-1.3333333,0,256)"><g
       id="g12"
       transform="matrix(0.62734716,0,0,0.62734716,-2.2109263,89.879028)"
       style="stroke-width:1.59401381"><g
         id="g14"
         clip-path="url(#clipPath18)"
         style="stroke-width:1.59401381"><g
           id="g20"
           transform="translate(180.3223,138.6372)"
           style="stroke-width:1.59401381"><path
             d="m 0,0 c -2.024,7.622 -7.987,13.624 -15.561,15.661 -13.724,3.702 -68.761,3.702 -68.761,3.702 0,0 -55.037,0 -68.762,-3.702 -7.573,-2.037 -13.537,-8.039 -15.561,-15.661 -3.677,-13.814 -3.677,-42.637 -3.677,-42.637 0,0 0,-28.822 3.677,-42.638 2.024,-7.621 7.988,-13.623 15.561,-15.661 13.725,-3.701 68.762,-3.701 68.762,-3.701 0,0 55.037,0 68.761,3.701 7.574,2.038 13.537,8.04 15.561,15.661 3.678,13.816 3.678,42.638 3.678,42.638 0,0 0,28.823 -3.678,42.637"
             style="fill:#ff0000;fill-opacity:1;fill-rule:nonzero;stroke:none;stroke-width:1.59401381"
             id="path22"
             inkscape:connector-curvature="0" /></g><g
           id="g24"
           transform="translate(78,69.8311)"
           style="stroke-width:1.59401381"><path
             d="M 0,0 46,26.168 0,52.338 Z"
             style="fill:#ffffff;fill-opacity:1;fill-rule:nonzero;stroke:none;stroke-width:1.59401381"
             id="path26"
             inkscape:connector-curvature="0" /></g></g></g><g
       id="g5830"
       transform="matrix(1.0923695,0,0,1.0923695,-18.33872,-3.0228054)"
       style="stroke-width:0.91544116"><circle
         r="54.002178"
         transform="scale(1,-1)"
         cy="-56.769379"
         cx="135.61543"
         id="path5823"
         style="opacity:1;fill:#ffffff;fill-opacity:0.89502761;stroke:none;stroke-width:10.29871368;stroke-linecap:round;stroke-linejoin:round;stroke-miterlimit:4;stroke-dasharray:none;stroke-dashoffset:0;stroke-opacity:1" /><g
         style="fill:#000000;stroke:none;stroke-width:4.99452162"
         transform="matrix(0.0183289,0,0,0.0183289,79.923141,1.0904451)"
         id="g4544"><path
           style="stroke-width:4.99452162"
           inkscape:connector-curvature="0"
           d="M 2770,5949 C 1995,5881 1247,5513 750,4955 259,4404 7,3755 7,3040 6,2574 107,2156 319,1744 465,1460 626,1242 859,1010 1031,839 1123,763 1320,632 1735,355 2225,180 2724,131 c 161,-16 508,-14 666,4 914,105 1715,590 2213,1342 306,462 467,995 467,1553 0,268 -22,448 -85,699 -94,378 -293,778 -541,1091 -156,196 -449,465 -665,611 -405,272 -894,453 -1379,509 -130,15 -502,21 -630,9 z m 475,-139 c 527,-39 1012,-203 1435,-485 176,-117 274,-198 436,-360 315,-313 518,-633 664,-1045 52,-148 112,-399 131,-555 19,-150 17,-533 -4,-684 C 5805,1951 5418,1299 4815,845 4483,595 4099,420 3680,326 3332,249 2896,239 2530,301 1316,506 353,1458 180,2625 c -56,377 -30,801 70,1148 151,520 427,950 850,1326 566,502 1368,768 2145,711 z"
           id="path4538" /><path
           style="stroke-width:4.99452162"
           inkscape:connector-curvature="0"
           d="m 2787,4669 c -124,-65 -123,-255 3,-319 86,-44 196,-16 247,62 58,87 26,211 -67,258 -51,26 -132,26 -183,-1 z"
           id="path4540" /><path
           style="stroke-width:4.99452162"
           inkscape:connector-curvature="0"
           d="m 2882,4108 c -12,-16 -63,-166 -102,-303 -30,-104 -101,-350 -165,-565 -20,-69 -58,-199 -85,-290 -26,-91 -64,-221 -85,-290 -20,-69 -58,-199 -85,-290 -26,-91 -64,-221 -85,-290 -20,-69 -57,-195 -81,-280 -59,-207 -93,-299 -115,-310 -10,-6 -35,-10 -56,-10 -73,0 -84,-8 -81,-54 l 3,-41 228,-3 228,-2 -3,47 -3,48 -73,3 c -66,3 -74,5 -84,27 -13,28 0,104 37,225 13,41 47,156 75,255 28,99 66,230 85,290 18,61 56,191 85,290 28,99 66,230 85,290 18,61 56,191 85,290 85,297 123,419 131,429 5,5 17,-11 28,-35 10,-24 192,-393 403,-819 211,-426 447,-902 523,-1058 l 139,-282 h 168 c 92,0 168,4 168,8 0,4 -75,158 -166,342 -588,1183 -969,1958 -1033,2100 -29,63 -69,151 -89,195 -44,95 -58,110 -80,83 z"
           id="path4542" /></g></g><path
       style="fill:none;stroke:#000000;stroke-width:11.25;stroke-linecap:butt;stroke-linejoin:miter;stroke-miterlimit:4;stroke-dasharray:none;stroke-opacity:1;marker-start:url(#TriangleOutS);marker-end:url(#Arrow2Send)"
       d="M 33.435202,110.01063 C 15.386953,62.759834 28.620565,45.815279 82.882975,45.815279"
       id="path4556"
       inkscape:connector-curvature="0"
       sodipodi:nodetypes="cc" /></g></svg>